<?xml version="1.0" encoding="iso-8859-1"?>
<!-- Generator: Adobe Illustrator 19.0.0, SVG Export Plug-In . SVG Version: 6.00 Build 0)  -->
<svg version="1.1" id="Capa_1" xmlns="http://www.w3.org/2000/svg" xmlns:xlink="http://www.w3.org/1999/xlink" x="0px" y="0px"
	 viewBox="0 0 511.36 511.36" style="enable-background:new 0 0 511.36 511.36;" xml:space="preserve">
<g>
	<g>
		<g>
			<path d="M503.691,492.907l-7.522-22.505l4.46-1.282L439.737,256H427.12c-7.792-0.042-14.713-4.986-17.28-12.343l-5.486-16.457
				c-6.127-18.412-19.314-33.638-36.663-42.331l-17.28-8.503c-8.046-4.104-11.95-13.42-9.234-22.034l6.674-20.114
				c0.373-0.961,0.898-1.856,1.554-2.651l5.029-34.926l-7.04,2.834v14.171c-0.007,6.431-3.369,12.392-8.869,15.726l-36.297,21.76
				c-5.814,3.446-13.054,3.411-18.834-0.091v358.766c12.338-1.321,24.562-3.551,36.571-6.674v-7.04
				c0.063-16.029,8.485-30.863,22.217-39.131l23.497-14.171V301.714c-0.027-4.418,3.144-8.208,7.497-8.96
				c1.44-0.247,2.919-0.121,4.297,0.366v-0.549h24.32c11.098-0.044,21.115,6.646,25.326,16.914l37.029,88.777
				c3.711,8.958,2.425,19.208-3.383,26.971l-19.291,25.783l12.069,31.634l3.931-1.13l9.714,22.733
				c1.765,4.13,6.268,6.366,10.625,5.277l19.423-4.855c2.472-0.618,4.574-2.239,5.8-4.473
				C504.261,497.968,504.498,495.324,503.691,492.907z"/>
			<path d="M204.4,9.509c-4.588,3.466-8.468,7.78-11.429,12.709l-28.709,47.817l10.789-1.829L204.4,9.509z"/>
			<path d="M205.771,98.743c1.538,0.67,3.035,1.433,4.48,2.286V80.914l-32.457,5.394L205.771,98.743z"/>
			<path d="M207.874,62.72c3.2-0.549,6.4-0.731,9.6-1.189c0.631-0.166,1.272-0.288,1.92-0.366c0.183,0,0.274,0.091,0.457,0.091
				c27.992-3.583,56.355-3.09,84.206,1.463l0.549,0.091L273.246,0h-41.051c-0.914,0-1.829,0.091-2.743,0.183L197.36,64.457
				L207.874,62.72z"/>
			<path d="M345.657,69.669l-35.109-50.194c-3.593-5.06-8.163-9.35-13.44-12.617l29.806,59.703L345.657,69.669z"/>
			<path d="M421.726,221.44l5.394,16.366l7.406-0.091l-9.783-34.194c-6.938-24.26-27.498-42.169-52.48-45.714l-7.954-1.189
				c-1.477-0.213-2.921-0.612-4.297-1.189L358.549,160l17.371,8.503C397.595,179.389,414.067,198.426,421.726,221.44z"/>
			<path d="M289.52,126.263c-1.463,1.371-2.834,2.743-4.206,4.206l7.497,5.029l36.297-21.851v-6.857l-23.223,9.234
				c-5.798,2.322-11.15,5.632-15.817,9.783C289.886,125.989,289.703,126.08,289.52,126.263z"/>
			<path d="M90.206,221.531c7.605-23.044,24.094-42.1,45.806-52.937l17.28-8.686l-1.463-4.48c-1.345,0.576-2.758,0.975-4.206,1.189
				l-7.954,1.189c-24.982,3.545-45.542,21.454-52.48,45.714l-9.783,34.194h7.406L90.206,221.531z"/>
			<path d="M301.04,80.823c-2.834-0.549-5.669-0.731-8.503-1.097v22.4c2.124-1.152,4.323-2.16,6.583-3.017l32.823-13.166
				L301.04,80.823z"/>
			<path d="M237.68,431.909v78.72c9.124,0.731,18.283,0.914,27.429,0.549V178.743l-4.846,15.36
				C245.27,272.484,237.709,352.106,237.68,431.909z"/>
			<path d="M338.251,496.091v1.646c3.2-1.097,6.4-2.194,9.6-3.474l6.126-2.286c7.012-2.792,11.638-9.55,11.703-17.097v-10.697
				l-14.08,8.411C343.362,477.567,338.305,486.469,338.251,496.091z"/>
			<path d="M104.286,316.526l-37.029,88.777c-1.228,2.985-0.775,6.398,1.189,8.96l10.606,14.171l44.8-117.577h-11.154
				C109.004,310.869,105.683,313.107,104.286,316.526z"/>
			<path d="M447.234,405.303l-36.937-88.777c-1.417-3.444-4.779-5.685-8.503-5.669H388.08l45.714,119.954l12.343-16.549
				C448.075,411.686,448.493,408.271,447.234,405.303z"/>
			<path d="M228.537,78.629v36.114c7.952,8.189,13.898,18.11,17.371,28.983l5.486,17.646l5.029-16.183
				c1.982-6.105,4.715-11.941,8.137-17.371c0-0.024,0.009-0.048,0.026-0.065c0.017-0.017,0.041-0.027,0.065-0.026
				c0-0.091,0.091-0.091,0.091-0.183c2.731-4.294,5.919-8.279,9.509-11.886V77.806C259.017,76.799,243.725,77.074,228.537,78.629z"
				/>
			<path d="M160.331,472.594l-14.08-8.411v10.697c0.065,7.547,4.69,14.305,11.703,17.097l6.126,2.286c3.2,1.28,6.4,2.377,9.6,3.474
				v-1.646C173.626,486.469,168.57,477.567,160.331,472.594z"/>
			<polygon points="182.823,321.189 191.966,315.063 191.966,265.143 182.823,265.143 			"/>
			<path d="M228.446,149.211c-4.672-15.069-15.643-27.375-30.08-33.737L157.68,97.371l4.846,34.194
				c0.656,0.795,1.181,1.69,1.554,2.651l6.674,19.931c2.764,8.691-1.187,18.103-9.326,22.217l-17.189,8.594
				c-17.386,8.645-30.589,23.889-36.663,42.331l-5.394,16.183c-2.52,7.458-9.5,12.49-17.371,12.526H72.194L11.303,469.12
				l3.939,1.132l-7.573,22.655c-0.808,2.417-0.57,5.061,0.655,7.295s3.327,3.856,5.799,4.474l19.423,4.856
				c4.357,1.089,8.86-1.147,10.625-5.277l9.776-22.879l4.441,1.276l12.983-34.011l-17.554-23.406
				c-5.852-7.746-7.141-18.02-3.383-26.971l36.937-88.777c4.232-10.251,14.235-16.932,25.326-16.914h24.411
				c0.553,0.016,1.103,0.077,1.646,0.183c4.353,0.752,7.525,4.542,7.497,8.96v141.074l23.497,14.171
				c13.732,8.268,22.154,23.103,22.217,39.131v7.04c9.034,2.358,18.191,4.22,27.429,5.577v-76.8
				c0.029-80.317,7.59-160.455,22.583-239.36L228.446,149.211z M210.251,315.063c0.044,6.138-3.017,11.883-8.137,15.269
				l-23.406,15.543c-2.799,1.858-6.393,2.028-9.354,0.442c-2.962-1.586-4.812-4.671-4.817-8.031v-73.143
				c0.029-10.087,8.199-18.256,18.286-18.286h9.143c10.087,0.029,18.256,8.199,18.286,18.286V315.063z"/>
		</g>
	</g>
</g>
<g>
</g>
<g>
</g>
<g>
</g>
<g>
</g>
<g>
</g>
<g>
</g>
<g>
</g>
<g>
</g>
<g>
</g>
<g>
</g>
<g>
</g>
<g>
</g>
<g>
</g>
<g>
</g>
<g>
</g>
</svg>
