<svg height="512pt" viewBox="-106 0 512 512" width="512pt" xmlns="http://www.w3.org/2000/svg"><path d="m260.496094 45.507812c-24.40625-29.371093-60.335938-44.652343-106.828125-45.4687495-1.304688-.0234375-2.617188-.0390625-3.941407-.0390625-48.414062 0-85.679687 15.308594-110.773437 45.507812-27.710937 33.347657-40.410156 83.339844-38.820313 152.832032.40625 17.804687 1.753907 35.695312 3.640626 53.1875.652343 6.046875 7.109374 9.625 12.601562 7.003906l272.054688-129.816406c3.648437-1.742188 5.679687-5.742188 4.867187-9.703125-6.179687-30.21875-17.058594-54.5625-32.800781-73.503907zm-32.558594 61.492188c0 17.867188-14.535156 32.402344-32.402344 32.402344h-91.621094c-17.867187 0-32.402343-14.535156-32.402343-32.402344v-37.855469c0-17.867187 14.535156-32.402343 32.402343-32.402343h91.621094c17.867188 0 32.402344 14.535156 32.402344 32.402343zm0 0"/><path d="m289.160156 163.84375-35.882812 75.238281c-.019532.046875-.042969.09375-.066406.140625-15.652344 31.1875-45.972657 46.347656-92.691407 46.347656h-132.792969c-12.144531 0-17.9375 7.644532-16.472656 18.300782 3.875 22.585937 10.699219 61.730468 11.296875 64.984375 10.289063 56.082031 22.5625 90.824219 39.800781 112.648437 16.65625 21.089844 38.1875 30.496094 69.808594 30.496094h35.128906c31.625 0 53.152344-9.40625 69.808594-30.496094 26.777344-42.582031 41.355469-121.050781 42.191406-125.53125 7.902344-42.441406 18.722657-100.5625 20.03125-157.636718.203126-9.003907-.234374-22.425782-.664062-32.554688-.152344-3.578125-3.90625-5.835938-7.140625-4.296875-1.03125.496094-1.863281 1.328125-2.355469 2.359375zm0 0"/></svg>