<svg id="Capa_1" enable-background="new 0 0 512 512" height="512" viewBox="0 0 512 512" width="512" xmlns="http://www.w3.org/2000/svg"><g><g><g><path d="m242 76c0-8.28-6.72-15-15-15h-182c-8.28 0-15 6.72-15 15 0 16.81-.38 31.68-1.05 45h218.27c-3.43-14.06-5.22-29.08-5.22-45zm-182 165c-19.38 0-37.81 6.25-52.9 17.2v.01c-3.5 19.43-6.18 41.44-6.9 71.24 38.619 3.779 82.67 7.624 149.3 10.98.34-3.12.5-6.27.5-9.43 0-49.63-40.37-90-90-90zm-60 118.59v76.41c0 8.28 6.72 15 15 15h45v-45c0-8.28 6.72-15 15-15s15 6.72 15 15v45h30v-45c0-8.28 6.72-15 15-15s15 6.72 15 15v45h45c8.28 0 15-6.72 15-15v-13.03c16.87 4.52 28.17 15.67 33.67 21.1 3.73 3.68 7.1 6.93 13.33 6.93 1.13 0 14.22-.03 45-1.47v-43.53c0-8.28 6.72-15 15-15s15 6.72 15 15v41.96c9.04-.52 19.02-1.12 30-1.82v-40.14c0-8.28 6.72-15 15-15s15 6.72 15 15v38.14c9.41-.66 19.41-1.38 30-2.17v-35.97c0-8.28 6.72-15 15-15s15 6.72 15 15v33.69c14.45-1.13 29.85-2.37 46.25-3.74 7.77-.65 13.75-7.15 13.75-14.95v-62.41c-138.463 26.181-371.866 14.797-512 1zm447.07-97.31c-27.94-1.91-54.21-7.17-78-15.56h-.01l-30.68 68.3c-3.429 7.626-12.344 10.908-19.83 7.54-7.55-3.39-10.93-12.27-7.53-19.83l30.42-67.73c-3.25-1.63-6.43-3.33-9.55-5.11l-42.61 60.54c-4.759 6.764-14.099 8.414-20.9 3.63-6.77-4.77-8.4-14.12-3.63-20.9l42.21-59.97c-2.64-2.08-5.21-4.22-7.7-6.42l-53.4 50.05c-6.095 5.696-15.572 5.311-21.21-.69-5.66-6.04-5.35-15.54.69-21.2l53.19-49.85c-1.97-2.47-3.87-5-5.7-7.58l-62.56 37.49c-7.079 4.259-16.307 1.966-20.57-5.15-4.26-7.1-1.96-16.32 5.15-20.58l62.96-37.74c-.09-.17-.17-.35-.24-.52h-230.84c-2.84 28.52-7.16 49.08-11.53 68.69 13.99-5.64 29.16-8.69 44.8-8.69 66.17 0 120 53.83 120 120 0 3.61-.16 7.22-.48 10.8 105.56 4.35 240.06 4.68 332.45-13.78-.97-34.58-29.13-63.29-64.9-65.74z"/></g></g></g></svg>