<svg id="Capa_1" enable-background="new 0 0 512 512" height="512" viewBox="0 0 512 512" width="512" xmlns="http://www.w3.org/2000/svg"><g><path d="m301.279 499.036c1.018 7.428 7.364 12.964 14.861 12.964h59.86c7.761 0 14.24-5.92 14.939-13.65l2.833-31.35h-96.882z"/><path d="m121.061 498.35c.698 7.73 7.178 13.65 14.939 13.65h59.86c7.498 0 13.844-5.536 14.861-12.964l4.389-32.036h-96.881z"/><path d="m241 0h30v60h-30z"/><path d="m211 0h-75c-8.284 0-15 6.716-15 15v45h90z"/><path d="m391 15c0-8.284-6.716-15-15-15h-75v60h90z"/><path d="m161 115v-25h-45.812l-3.602 10.805c-6.471 19.414-10.984 39.189-13.575 59.195h17.989c24.813 0 45-20.187 45-45z"/><path d="m351 115c0 24.813 20.187 45 45 45h17.988c-2.591-20.007-7.104-39.781-13.575-59.195l-3.602-10.805h-45.811z"/><path d="m416.415 190h-20.415c-41.355 0-75-33.645-75-75v-25h-130v25c0 41.355-33.645 75-75 75h-20.415c-.415 12.862-.056 25.793 1.116 38.764l18.816 208.236h103.702l27.449-200.377c-3.739 1.35-7.167 3.516-10.061 6.41-5.857 5.857-15.355 5.859-21.213 0-5.858-5.857-5.858-15.354 0-21.213 10.845-10.846 25.267-16.82 40.606-16.82 15.34 0 29.761 5.974 40.606 16.82 5.858 5.858 5.857 15.355 0 21.213-2.929 2.929-6.769 4.394-10.606 4.394-3.839 0-7.678-1.464-10.606-4.394-2.895-2.895-6.323-5.061-10.062-6.41l27.449 200.377h103.702l18.817-208.236c1.172-12.971 1.53-25.902 1.115-38.764z"/></g></svg>