<svg height="512pt" viewBox="-106 0 512 512" width="512pt" xmlns="http://www.w3.org/2000/svg"><path d="m22.195312 167h63.222657l-12.042969-36.167969c-11.308594-33.9375 14.039062-68.832031 49.628906-68.832031 35.628906 0 60.929688 34.921875 49.613282 68.847656l-12.046876 36.152344h63.242188l5.726562-17.183594c24.269532-72.796875-29.777343-149.816406-106.535156-149.816406-76.730468 0-130.8125 77-106.539062 149.816406zm0 0"/><path d="m22.5 242h195c12.425781 0 22.5-10.074219 22.5-22.5s-10.074219-22.5-22.5-22.5h-195c-12.425781 0-22.5 10.074219-22.5 22.5s10.074219 22.5 22.5 22.5zm0 0"/><path d="m217.5 317c12.425781 0 22.5-10.074219 22.5-22.5s-10.074219-22.5-22.5-22.5h-195c-12.425781 0-22.5 10.074219-22.5 22.5s10.074219 22.5 22.5 22.5zm0 0"/><path d="m123.003906 452c-35.632812 0-60.929687-34.921875-49.613281-68.847656l12.046875-36.152344h-63.242188l-5.730468 17.183594c-24.265625 72.796875 29.78125 147.816406 106.539062 147.816406 36.40625 0 69.484375-16.90625 90.851563-46.355469-18.269531-8.78125-34.667969-20.761719-48.460938-35.3125-4.757812 6.570313-18.320312 21.667969-42.390625 21.667969zm0 0"/><path d="m285 392c-30.675781 0-57.035156-18.558594-68.644531-45h-62.730469c13.714844 60 67.273438 105 131.375 105h15v-60zm0 0"/></svg>