<?xml version="1.0" encoding="iso-8859-1"?>
<!-- Generator: Adobe Illustrator 19.0.0, SVG Export Plug-In . SVG Version: 6.00 Build 0)  -->
<svg version="1.1" id="Capa_1" xmlns="http://www.w3.org/2000/svg" xmlns:xlink="http://www.w3.org/1999/xlink" x="0px" y="0px"
	 viewBox="0 0 512 512" style="enable-background:new 0 0 512 512;" xml:space="preserve">
<g>
	<g>
		<path d="M506.48,98.721c-6.498-22.142-18.21-41.787-34.812-58.389c-16.602-16.602-36.247-28.315-58.39-34.812
			c-20.734-6.083-43.026-7.162-64.465-3.117c-21.437,4.045-41.804,13.172-58.896,26.394c-18.252,14.12-32.277,32.185-41.688,53.695
			l-29.377,67.145l143.511,143.511l67.145-29.376c21.51-9.411,39.575-23.437,53.695-41.689
			c13.222-17.092,22.349-37.459,26.394-58.897C513.643,141.748,512.565,119.456,506.48,98.721z M409.169,144.237
			c-1.043,5.531-5.143,19.129-20.624,25.902l-82.993,36.31l36.31-82.993c6.773-15.483,20.37-19.582,25.901-20.625
			c1.597-0.301,3.911-0.61,6.685-0.61c6.835,0,16.453,1.877,24.953,10.378C411.35,124.547,410.212,138.705,409.169,144.237z"/>
	</g>
</g>
<g>
	<g>
		
			<rect x="237.053" y="165.397" transform="matrix(0.7071 -0.7071 0.7071 0.7071 -106.0373 255.9955)" width="37.884" height="181.198"/>
	</g>
</g>
<g>
	<g>
		<path d="M357.901,369.485c-15.245,5.081-31.181,5.291-45.923,1.095c-6.541-1.862-12.85-4.583-18.756-8.143
			c-0.028-0.018-0.055-0.036-0.083-0.052l0.009-0.021L149.637,218.852l-67.145,29.376c-21.51,9.411-39.575,23.437-53.695,41.689
			c-13.222,17.092-22.349,37.459-26.394,58.897c-4.045,21.437-2.967,43.729,3.117,64.464c6.498,22.142,18.21,41.787,34.813,58.389
			c16.601,16.602,36.247,28.315,58.39,34.812c12.513,3.671,25.589,5.52,38.706,5.52c8.619,0,17.258-0.799,25.759-2.403
			c21.438-4.045,41.804-13.172,58.896-26.394c18.252-14.12,32.277-32.185,41.688-53.695l17.284-39.506
			c8.574,4.743,17.794,8.321,27.432,10.597c8.168,1.928,16.484,2.888,24.791,2.888c11.536,0,23.05-1.852,34.107-5.538
			L357.901,369.485z M170.14,388.542c-6.773,15.483-20.37,19.582-25.901,20.626c-5.531,1.042-19.688,2.181-31.639-9.768
			c-11.949-11.949-10.812-26.106-9.768-31.639c1.043-5.531,5.143-19.129,20.624-25.902l82.993-36.31L170.14,388.542z"/>
	</g>
</g>
<g>
</g>
<g>
</g>
<g>
</g>
<g>
</g>
<g>
</g>
<g>
</g>
<g>
</g>
<g>
</g>
<g>
</g>
<g>
</g>
<g>
</g>
<g>
</g>
<g>
</g>
<g>
</g>
<g>
</g>
</svg>
