<?xml version="1.0" encoding="iso-8859-1"?>
<!-- Generator: Adobe Illustrator 19.0.0, SVG Export Plug-In . SVG Version: 6.00 Build 0)  -->
<svg version="1.1" id="Layer_1" xmlns="http://www.w3.org/2000/svg" xmlns:xlink="http://www.w3.org/1999/xlink" x="0px" y="0px"
	 viewBox="0 0 512 512" style="enable-background:new 0 0 512 512;" xml:space="preserve">
<g>
	<g>
		<polygon points="271,377 271,386 241,386 241,377 186.62,377 186.62,432.09 325.38,432.09 325.38,377 		"/>
	</g>
</g>
<g>
	<g>
		<polygon points="186.62,318.6 186.62,347 241,347 241,340 271,340 271,347 325.38,347 325.38,318.6 		"/>
	</g>
</g>
<g>
	<g>
		<rect x="198.66" y="244.27" width="114.68" height="44.33"/>
	</g>
</g>
<g>
	<g>
		<polygon points="170,0 170,113.22 198.66,113.22 198.66,171.33 211.36,171.33 211.36,201.33 198.66,201.33 198.66,214.27 
			313.34,214.27 313.34,201.33 300.64,201.33 300.64,171.33 313.34,171.33 313.34,113.22 342,113.22 342,0 		"/>
	</g>
</g>
<g>
	<g>
		<path d="M504.46,376.66V355.2c0-26.1-21.24-47.33-47.34-47.33h-27.03v-63.6h-86.75v44.33h12.04v173.49H156.62V288.6h12.04v-44.33
			H81.91v63.6H54.88c-26.1,0-47.34,21.23-47.34,47.33v21.46h74.37v30H7.54v68.79h77.85c7.93,21.32,28.48,36.55,52.52,36.55h236.18
			c24.04,0,44.59-15.23,52.52-36.55h77.85v-68.79h-74.37v-30H504.46z"/>
	</g>
</g>
<g>
	<g>
		<path d="M470,56.61C470,25.4,444.6,0,413.39,0H372v113.22h-28.66v58.11h11.97v30h-11.97v12.94h86.75v-54.55
			c0-17.48-5.89-33.61-15.81-46.51C445.08,112.74,470,87.53,470,56.61z"/>
	</g>
</g>
<g>
	<g>
		<path d="M168.66,171.33v-58.11H140V0H98.61C67.4,0,42,25.4,42,56.61c0,30.92,24.92,56.13,55.72,56.6
			c-9.92,12.9-15.81,29.03-15.81,46.51v54.55h86.75v-12.94h-11.97v-30H168.66z"/>
	</g>
</g>
<g>
</g>
<g>
</g>
<g>
</g>
<g>
</g>
<g>
</g>
<g>
</g>
<g>
</g>
<g>
</g>
<g>
</g>
<g>
</g>
<g>
</g>
<g>
</g>
<g>
</g>
<g>
</g>
<g>
</g>
</svg>
