<svg id="Capa_1" enable-background="new 0 0 512 512" height="512" viewBox="0 0 512 512" width="512" xmlns="http://www.w3.org/2000/svg"><g><path d="m368.732 202.5c14.685 21.712 23.268 47.872 23.268 76s-8.583 54.288-23.268 76h143.268v-152z"/><path d="m256 142.5c32.183 0 61.785 11.244 85.1 30h170.9v-45h-120.06l-39.853-75h-192.175l-39.853 75h-120.059v45h170.9c23.315-18.756 52.917-30 85.1-30z"/><circle cx="256" cy="278.5" r="46"/><path d="m120 278.5c0-28.128 8.583-54.288 23.268-76h-143.268v152h143.268c-14.685-21.712-23.268-47.872-23.268-76z"/><path d="m256 172.5c-58.449 0-106 47.551-106 106s47.551 106 106 106 106-47.551 106-106-47.551-106-106-106zm0 182c-41.907 0-76-34.093-76-76s34.093-76 76-76 76 34.093 76 76-34.093 76-76 76z"/><path d="m256 414.5c-32.183 0-61.785-11.244-85.1-30h-170.9v75h512v-75h-170.9c-23.315 18.756-52.917 30-85.1 30z"/></g></svg>