<svg height="512pt" viewBox="0 -91 512 512" width="512pt" xmlns="http://www.w3.org/2000/svg"><path d="m497 330h-98c-8.285156 0-15-6.714844-15-15v-300c0-8.285156 6.714844-15 15-15h98c8.285156 0 15 6.714844 15 15v300c0 8.285156-6.714844 15-15 15zm0 0"/><path d="m86.65625 47.449219c-8.285156 0-15 6.714843-15 15v10.511719h-56.65625c-8.285156 0-15 6.714843-15 15v153.0625c0 8.28125 6.714844 15 15 15h56.65625v10.507812c0 8.285156 6.714844 15 15 15h49.445312v-234.082031zm0 0"/><path d="m298.078125 103.773438h55.660156v46.226562h-55.660156zm0 0"/><path d="m298.078125 256.226562h55.660156v46.222657h-55.660156zm0 0"/><path d="m298.078125 180h55.660156v46.226562h-55.660156zm0 0"/><path d="m298.078125 27.550781h55.660156v46.226563h-55.660156zm0 0"/><path d="m268.078125 256.226562v-228.675781h-86.976563c-8.285156 0-15 6.714844-15 15v244.898438c0 8.28125 6.714844 15 15 15h86.976563zm0 0"/></svg>