<?xml version="1.0" encoding="iso-8859-1"?>
<!-- Generator: Adobe Illustrator 19.0.0, SVG Export Plug-In . SVG Version: 6.00 Build 0)  -->
<svg version="1.1" id="Layer_1" xmlns="http://www.w3.org/2000/svg" xmlns:xlink="http://www.w3.org/1999/xlink" x="0px" y="0px"
	 viewBox="0 0 330.004 330.004" style="enable-background:new 0 0 330.004 330.004;" xml:space="preserve">
<g>
	<g>
		<path d="M269.474,311.053l-60-220C207.694,84.527,201.766,80,195.002,80h-15V30h15c8.284,0,15-6.716,15-15s-6.716-15-15-15h-60
			c-8.284,0-15,6.716-15,15s6.716,15,15,15h15v50h-15c-6.764,0-12.692,4.527-14.472,11.053l-60,220
			c-2.18,7.992,2.533,16.238,10.525,18.419c7.99,2.18,16.239-2.533,18.419-10.525L146.459,110h3.543v165c0,8.284,6.716,15,15,15
			s15-6.716,15-15V110h3.543l56.985,208.947c1.82,6.671,7.866,11.057,14.463,11.057c1.306,0,2.635-0.172,3.956-0.532
			C266.941,327.292,271.653,319.045,269.474,311.053z"/>
	</g>
</g>
<g>
</g>
<g>
</g>
<g>
</g>
<g>
</g>
<g>
</g>
<g>
</g>
<g>
</g>
<g>
</g>
<g>
</g>
<g>
</g>
<g>
</g>
<g>
</g>
<g>
</g>
<g>
</g>
<g>
</g>
</svg>
