<svg id="Capa_1" enable-background="new 0 0 512 512" height="512" viewBox="0 0 512 512" width="512" xmlns="http://www.w3.org/2000/svg"><g><path d="m273 97v-97c-10.619 0-22.123 0-34 0v97z"/><path d="m303 112c0 8.284-6.716 15-15 15-25.236 0-185.168 0-207 0v49c0 8.284 6.716 15 15 15h17v98h-17c-8.284 0-15 6.716-15 15v113h350c0-105.144 0-300.952 0-311 0-3.979-1.58-7.794-4.394-10.606-35.058-35.06-54.918-55.92-90-91-2.812-2.814-6.627-4.394-10.606-4.394-4.802 0-12.798 0-23 0z"/><path d="m81 447v35c0 16.542 13.458 30 30 30h290c16.542 0 30-13.458 30-30 0-2.571 0-15.454 0-35z"/><path d="m145 97c0-12.279 0-82.625 0-97-24.338 0-42.988 0-49 0-8.284 0-15 6.716-15 15v82z"/><path d="m209 97c0-12.279 0-82.625 0-97-11.523 0-23.001 0-34 0v97z"/></g></svg>