<?xml version="1.0" encoding="iso-8859-1"?>
<!-- Generator: Adobe Illustrator 19.0.0, SVG Export Plug-In . SVG Version: 6.00 Build 0)  -->
<svg version="1.1" id="Capa_1" xmlns="http://www.w3.org/2000/svg" xmlns:xlink="http://www.w3.org/1999/xlink" x="0px" y="0px"
	 viewBox="0 0 512 512" style="enable-background:new 0 0 512 512;" xml:space="preserve">
<g>
	<g>
		<path d="M95,139v110h80V139H95z M155,229h-40v-30h40V229z M155,189h-40v-30h40V189z"/>
	</g>
</g>
<g>
	<g>
		<path d="M225,0H45C20.187,0,0,20.187,0,45v245h270V45C270,20.187,249.813,0,225,0z M107,50h56v30h-56V50z M195,269H75V119h45v-15
			h30v15h45V269z"/>
	</g>
</g>
<g>
	<g>
		<path d="M0,320v45c0,24.813,20.187,45,45,45h180c24.813,0,45-20.187,45-45v-45H0z M135,365c-8.284,0-15-6.716-15-15
			s6.716-15,15-15s15,6.716,15,15S143.284,365,135,365z"/>
	</g>
</g>
<g>
	<g>
		<path d="M357,356v70h30v42c0,7.72-6.28,14-14,14H164c-7.72,0-14-6.28-14-14v-8h30v-30H90v30h30v8c0,24.262,19.738,44,44,44h209
			c24.262,0,44-19.738,44-44v-42h30v-70H357z"/>
	</g>
</g>
<g>
	<g>
		<path d="M292,76v260h220V76H292z M380.606,273.606l-21.213-21.213L395.787,216h-51l75.606-75.606l21.213,21.213L417.213,186h51
			L380.606,273.606z"/>
	</g>
</g>
<g>
</g>
<g>
</g>
<g>
</g>
<g>
</g>
<g>
</g>
<g>
</g>
<g>
</g>
<g>
</g>
<g>
</g>
<g>
</g>
<g>
</g>
<g>
</g>
<g>
</g>
<g>
</g>
<g>
</g>
</svg>
