<svg id="Layer_1" enable-background="new 0 0 512 512" height="512" viewBox="0 0 512 512" width="512" xmlns="http://www.w3.org/2000/svg"><g><path d="m256 124.343c27.166 0 49.267-22.101 49.267-49.267v-70.832c-13.727 11.76-30.997 18.191-49.267 18.191s-35.54-6.431-49.267-18.191v70.833c0 27.166 22.101 49.266 49.267 49.266z"/><path d="m421.41 28.715-86.143-28.715v75.077c0 43.708-35.559 79.267-79.267 79.267s-79.267-35.559-79.267-79.267v-75.077l-86.143 28.715c-6.125 2.042-10.256 7.774-10.256 14.23v454.055c0 8.284 6.716 15 15 15h321.333c8.284 0 15-6.716 15-15v-454.055c0-6.455-4.132-12.188-10.257-14.23z"/></g></svg>