<svg id="Capa_1" enable-background="new 0 0 512 512" height="512" viewBox="0 0 512 512" width="512" xmlns="http://www.w3.org/2000/svg"><g><g><path d="m362.198 35.225c0-8.284-6.716-15-15-15h-170c-8.284 0-15 6.716-15 15v45h200z"/><g><path d="m0 117.198v45h132.198v-60h-117.198c-8.284 0-15 6.716-15 15z"/></g></g><g><path d="m82.295 401.672c11.417-12.137 17.705-27.931 17.705-44.474 0-35.841-29.159-65-65-65-5.262 0-10.73.722-16.254 2.147l-18.746 4.834v6.404c0 46.958 26.52 89.978 68.036 111.245z"/><path d="m254.94 379.166c-9.565 13.907-14.94 30.582-14.94 48.032 0 14.277 3.625 28.414 10.483 40.883l13.032 23.694c8.121-.785 16.192-2.614 24.039-5.518 23.68-8.764 42.598-26.194 53.27-49.078 2.49-5.34 4.457-10.83 5.913-16.41z"/><path d="m224.197 482.539c-9.288-16.886-14.197-36.023-14.197-55.341 0-21.788 6.196-42.674 17.308-60.555l-4.091-1.854c-55.292-25.058-91.019-80.474-91.019-141.178v-31.413h-132.198v76l11.254-2.903c7.969-2.055 15.958-3.097 23.746-3.097 52.383 0 95 42.617 95 95 0 24.212-9.182 47.307-25.854 65.029l-7.349 7.812 118.373 53.646c3.982 1.804 8.044 3.321 12.164 4.555z"/></g><g><path d="m506.132 282.175c-3.477-9.488-8.355-18.195-14.395-25.934l-26.188 6.888c-37.3 9.812-63.352 43.571-63.352 82.096 0 14.277 3.625 28.414 10.483 40.883l13.032 23.694c8.121-.785 16.193-2.614 24.04-5.518 23.68-8.764 42.598-26.194 53.27-49.078 10.787-23.131 11.891-49.067 3.11-73.031z"/><path d="m244.493 319.699c11.417-12.136 17.705-27.931 17.705-44.474 0-35.841-29.159-65-65-65-5.262 0-10.73.722-16.254 2.147l-18.746 4.834v6.404c0 46.958 26.52 89.978 68.036 111.245z"/><path d="m386.394 400.566c-9.288-16.887-14.197-36.023-14.197-55.341 0-52.143 35.249-97.833 85.72-111.109l6.368-1.675c-2.497-1.435-5.063-2.779-7.711-4l-79.845-36.814c-8.828-4.071-14.532-12.982-14.532-22.703v-58.699h-200v76l11.254-2.903c7.969-2.055 15.958-3.097 23.746-3.097 52.383 0 95 42.617 95 95 0 24.212-9.182 47.307-25.854 65.029l-7.349 7.812 118.373 53.646c3.981 1.804 8.044 3.321 12.163 4.554z"/></g></g></svg>