<?xml version="1.0" encoding="iso-8859-1"?>
<!-- Generator: Adobe Illustrator 19.0.0, SVG Export Plug-In . SVG Version: 6.00 Build 0)  -->
<svg version="1.1" id="Capa_1" xmlns="http://www.w3.org/2000/svg" xmlns:xlink="http://www.w3.org/1999/xlink" x="0px" y="0px"
	 viewBox="0 0 512 512" style="enable-background:new 0 0 512 512;" xml:space="preserve">
<g>
	<g>
		<path d="M497.231,73.846H14.769C6.613,73.846,0,80.459,0,88.615v44.308h512V88.615C512,80.459,505.387,73.846,497.231,73.846z"/>
	</g>
</g>
<g>
	<g>
		<path d="M349.538,162.462v77.634l65.626,66.53c23.232-16.378,51.545-26.011,82.067-26.011c8.157,0,14.769-6.613,14.769-14.769
			V162.462H349.538z"/>
	</g>
</g>
<g>
	<g>
		<path d="M0,162.462v103.385c0,8.157,6.613,14.769,14.769,14.769c30.522,0,58.835,9.633,82.067,26.011l65.626-66.53v-77.634H0z"/>
	</g>
</g>
<g>
	<g>
		<path d="M324.255,256.526c-2.726-2.764-4.255-6.491-4.255-10.372v-83.692H192v83.692c0,3.881-1.528,7.608-4.255,10.372
			l-68.607,69.553c23.807,25.518,38.4,59.737,38.4,97.306c0,8.156,6.613,14.769,14.769,14.769h167.385
			c8.157,0,14.769-6.613,14.769-14.769c0-37.569,14.593-71.787,38.4-97.306L324.255,256.526z"/>
	</g>
</g>
<g>
</g>
<g>
</g>
<g>
</g>
<g>
</g>
<g>
</g>
<g>
</g>
<g>
</g>
<g>
</g>
<g>
</g>
<g>
</g>
<g>
</g>
<g>
</g>
<g>
</g>
<g>
</g>
<g>
</g>
</svg>
