<svg id="Capa_1" enable-background="new 0 0 512 512" height="512" viewBox="0 0 512 512" width="512" xmlns="http://www.w3.org/2000/svg"><g><path d="m511.067 255.493c-52.78-10.558-106.929 2.961-148.556 37.087-41.628 34.127-65.502 84.57-65.502 138.398l.006.021c1.214 0 2.423-.148 3.601-.44 45.849-11.358 89.379-33.124 125.882-62.942 34.772-28.405 63.793-64.681 83.925-104.903 1.095-2.188 1.625-4.604 1.573-7.035z"/><path d="m149.488 292.58c-41.627-34.126-95.775-47.645-148.556-37.087l-.929.186c-.052 2.431.478 4.846 1.574 7.035 20.134 40.226 49.154 76.5 83.924 104.903 36.503 29.818 80.033 51.584 125.882 62.942 1.174.291 2.378.438 3.587.439l.021-.02c-.001-53.828-23.875-104.271-65.503-138.398z"/><path d="m272.675 159.174-6.068 6.068c-5.857 5.857-15.355 5.857-21.213 0l-6.068-6.068c-5.44-5.44-12.588-8.161-19.734-8.161s-14.294 2.721-19.734 8.161c-10.882 10.882-10.882 28.588 0 39.47l56.142 56.144 56.144-56.144c10.882-10.882 10.882-28.588 0-39.47-10.881-10.881-28.588-10.881-39.469 0z"/><path d="m343.492 269.38c37.282-30.564 84.246-47.396 132.242-47.396 10.821 0 21.698.863 32.448 2.544l-16.298-130.388c-.939-7.507-7.32-13.14-14.884-13.14h-442c-7.564 0-13.945 5.633-14.884 13.14l-16.298 130.387c10.747-1.681 21.625-2.544 32.448-2.544 47.996 0 94.96 16.832 132.242 47.396 48.605 39.848 76.482 98.748 76.482 161.599v.021h22.021c0-.007-.001-.014-.001-.021 0-62.85 27.877-121.75 76.482-161.598zm-87.492 21.62c-3.839 0-7.678-1.465-10.606-4.394l-66.75-66.75c-22.579-22.578-22.579-59.317 0-81.896 21.121-21.122 54.636-22.484 77.356-4.088 22.721-18.396 56.234-17.034 77.356 4.088 22.579 22.578 22.579 59.317 0 81.896l-66.75 66.75c-2.928 2.93-6.767 4.394-10.606 4.394z"/></g></svg>