<svg id="Layer_1" enable-background="new 0 0 512 512" height="512" viewBox="0 0 512 512" width="512" xmlns="http://www.w3.org/2000/svg"><g><path d="m0 448.8c0 8.284 6.716 15 15 15h482c8.284 0 15-6.716 15-15v-34.267h-512z"/><path d="m507.606 261.46-59.873-59.874v-138.386c0-8.284-6.716-15-15-15h-64.267c-8.284 0-15 6.716-15 15v138.21c-26.651 24.542-61.025 37.983-97.467 37.983-36.441 0-70.817-13.44-97.467-37.976v-138.217c0-8.284-6.716-15-15-15h-64.265c-8.284 0-15 6.716-15 15v138.386l-59.873 59.874c-2.814 2.813-4.394 6.629-4.394 10.607v112.466h512v-112.466c0-3.978-1.58-7.794-4.394-10.607z"/></g></svg>