<?xml version="1.0" encoding="iso-8859-1"?>
<!-- Generator: Adobe Illustrator 19.0.0, SVG Export Plug-In . SVG Version: 6.00 Build 0)  -->
<svg version="1.1" id="Capa_1" xmlns="http://www.w3.org/2000/svg" xmlns:xlink="http://www.w3.org/1999/xlink" x="0px" y="0px"
	 viewBox="0 0 512.002 512.002" style="enable-background:new 0 0 512.002 512.002;" xml:space="preserve">
<g>
	<g>
		<path d="M376.365,136.025c8.436-2.347,14.635-10.066,14.635-19.25c0-11.046-8.954-20-20-20c-11.046,0-20,8.954-20,20
			c0,5.498,2.221,10.476,5.812,14.091c-12.857-2.678-26.172-4.091-39.812-4.091c-46.882,0-92.195,16.882-127.594,47.536
			c-32.449,28.099-54.681,66.043-63.332,107.706L0,312.497v38.019L19.384,369.9c30.217,30.217,69.909,45.326,109.602,45.326
			s79.384-15.109,109.602-45.326l22.252-22.252c75.559,18.017,153.167,27.281,231.965,27.6l12.136,0.049l2.582-11.858
			c2.972-13.647,4.479-27.666,4.479-41.666C512,234.943,454.948,161.198,376.365,136.025z M270.861,203.029
			C251.326,234.063,241,269.938,241,306.774c0,1.639,0.041,3.281,0.082,4.923c-28.641-7.691-56.96-16.682-84.901-26.99
			c7.796-33.896,26.283-64.701,52.864-87.718c28.505-24.685,64.617-38.803,102.24-40.105
			C295.55,169.987,281.877,185.529,270.861,203.029z"/>
	</g>
</g>
<g>
</g>
<g>
</g>
<g>
</g>
<g>
</g>
<g>
</g>
<g>
</g>
<g>
</g>
<g>
</g>
<g>
</g>
<g>
</g>
<g>
</g>
<g>
</g>
<g>
</g>
<g>
</g>
<g>
</g>
</svg>
