<svg id="Capa_1" enable-background="new 0 0 512 512" height="512" viewBox="0 0 512 512" width="512" xmlns="http://www.w3.org/2000/svg"><g><g><path d="m420.89 270h-14.89c-19.669 0-29.392 21.348-37.5 29.14-8.125-7.809-17.815-29.14-37.5-29.14-19.669 0-29.392 21.348-37.5 29.14-8.125-7.809-17.815-29.14-37.5-29.14-19.669 0-29.392 21.348-37.5 29.14-8.125-7.809-17.815-29.14-37.5-29.14-19.669 0-29.392 21.348-37.5 29.14-8.125-7.809-17.815-29.14-37.5-29.14h-14.89c19.416-58.673 51.207-116.533 108.85-139.63 15.38 12.29 34.87 19.63 56.04 19.63s40.66-7.34 56.04-19.63c57.643 23.097 89.434 80.957 108.85 139.63z"/><path d="m446.45 377.73c-3.42-.48-6.9-.73-10.45-.73h-360c-3.55 0-7.03.25-10.45.73 5.02-29.12 10.51-54.82 16.64-77.72l22.8-.01c7.463 5.364 17.538 30 38.51 30 19.669 0 29.392-21.348 37.5-29.14 8.125 7.809 17.815 29.14 37.5 29.14 19.669 0 29.392-21.348 37.5-29.14 8.125 7.809 17.815 29.14 37.5 29.14 19.669 0 29.392-21.348 37.5-29.14 8.125 7.809 17.815 29.14 37.5 29.14 20.884 0 31.179-24.731 38.51-30h22.8c6.13 22.9 11.62 48.6 16.64 77.73z"/></g><g><circle cx="256" cy="60" r="60"/></g><g><path d="m436 512h-360c-24.813 0-45-20.187-45-45v-15c0-24.813 20.187-45 45-45h360c24.813 0 45 20.187 45 45v15c0 24.813-20.187 45-45 45z"/></g></g></svg>