<?xml version="1.0" encoding="iso-8859-1"?>
<!-- Generator: Adobe Illustrator 18.0.0, SVG Export Plug-In . SVG Version: 6.00 Build 0)  -->
<!DOCTYPE svg PUBLIC "-//W3C//DTD SVG 1.1//EN" "http://www.w3.org/Graphics/SVG/1.1/DTD/svg11.dtd">
<svg version="1.1" id="Capa_1" xmlns="http://www.w3.org/2000/svg" xmlns:xlink="http://www.w3.org/1999/xlink" x="0px" y="0px"
	 viewBox="0 0 283.721 283.721" style="enable-background:new 0 0 283.721 283.721;" xml:space="preserve">
<g>
	<path d="M88.894,181.205c-11.458-11.9-11.097-30.904,0.804-42.363c11.977-11.53,30.943-11.055,42.361,0.805l0.267,0.277
		l-7.506-63.701c-1.933-16.407,9.842-31.328,26.244-33.26c0.954-0.113,1.919-0.168,2.879-0.189l1.2-14.097
		c0.701-8.232-5.405-15.474-13.637-16.175c-8.227-0.701-15.474,5.405-16.175,13.637l-4.189,49.209
		c-0.26,3.05-4.822,2.862-4.822-0.205V14.96c0-8.262-6.698-14.96-14.96-14.96C93.098,0,86.4,6.698,86.4,14.96v59.234
		c0,2.496-3.695,2.717-3.988,0.234L76.745,26.34c-0.967-8.205-8.403-14.076-16.608-13.107C51.931,14.2,46.064,21.636,47.03,29.842
		l11.681,99.134c0.335,2.843-3.149,4.489-5.133,2.428l-25.012-25.979c-5.73-5.951-15.2-6.132-21.152-0.401
		c-5.952,5.73-6.132,15.2-0.401,21.152c66.649,69.226,68.525,69.21,70.225,70.289c-4.3,0.81-7.554,4.58-7.554,9.115v24.234
		c0,5.126,4.156,9.282,9.282,9.282h65.664C138.999,233.247,94.915,187.458,88.894,181.205z"/>
	<path d="M264.359,185.063l16.255-79.621c1.503-7.365-3.248-14.554-10.614-16.058c-7.36-1.495-14.554,3.25-16.058,10.614
		l-6.48,31.742c-0.583,2.854-4.793,2.201-4.549-0.656l4.919-57.782c0.701-8.232-5.405-15.474-13.637-16.175
		c-8.23-0.701-15.474,5.406-16.175,13.637l-4.189,49.209c-0.263,3.082-4.822,2.862-4.822-0.205V59.586
		c0-8.262-6.698-14.96-14.96-14.96c-8.262,0-14.96,6.698-14.96,14.96v59.234c0,2.5-3.693,2.738-3.988,0.234l-5.666-48.088
		c-0.967-8.203-8.402-14.076-16.609-13.107c-8.205,0.967-14.073,8.403-13.106,16.609l11.681,99.134
		c0.337,2.861-3.162,4.475-5.133,2.428l-25.012-25.979c-5.729-5.95-15.199-6.133-21.152-0.402
		c-5.952,5.731-6.132,15.201-0.401,21.152c0,0,68.524,69.21,70.224,70.289c-4.299,0.811-7.553,4.58-7.553,9.115v24.234
		c0,5.126,4.156,9.282,9.282,9.282h88.189c5.126,0,9.282-4.156,9.282-9.282v-24.234c0-4.561-3.292-8.345-7.628-9.127
		c1.793-2.467,2.863-5.493,2.863-8.776V185.063z M245.655,272.309c-5.707,0-10.333-4.626-10.333-10.333
		c0-5.707,4.626-10.333,10.333-10.333c5.707,0,10.333,4.626,10.333,10.333C255.988,267.683,251.361,272.309,245.655,272.309z"/>
</g>
<g>
</g>
<g>
</g>
<g>
</g>
<g>
</g>
<g>
</g>
<g>
</g>
<g>
</g>
<g>
</g>
<g>
</g>
<g>
</g>
<g>
</g>
<g>
</g>
<g>
</g>
<g>
</g>
<g>
</g>
</svg>
