<?xml version="1.0" encoding="iso-8859-1"?>
<!-- Generator: Adobe Illustrator 17.1.0, SVG Export Plug-In . SVG Version: 6.00 Build 0)  -->
<!DOCTYPE svg PUBLIC "-//W3C//DTD SVG 1.1//EN" "http://www.w3.org/Graphics/SVG/1.1/DTD/svg11.dtd">
<svg version="1.1" id="Capa_1" xmlns="http://www.w3.org/2000/svg" xmlns:xlink="http://www.w3.org/1999/xlink" x="0px" y="0px"
	 viewBox="0 0 298.584 298.584" style="enable-background:new 0 0 298.584 298.584;" xml:space="preserve">
<g>
	<path d="M271.277,252.5l8.258-8.258c3.936-3.935,3.936-10.315,0-14.25c-3.934-3.936-10.316-3.936-14.25,0l-8.258,8.258
		l-93.484-93.484l72.979-72.979c0.501,0.048,1.004,0.072,1.507,0.072c4.051,0,8.102-1.545,11.192-4.636l5.304-5.304
		c0.021,2.033,0.092,4.322,0.22,6.396c1.46,23.662,10.21,47.852,24.106,47.852c0.001,0,0.002,0,0.003,0
		c0.238,0,0.475-0.24,0.712-0.255c9.061-0.557,13.644-11.079,15.569-17.232c2.836-9.06,3.979-20.899,3.22-33.231
		c-0.907-14.676-4.62-29.486-10.622-38.603c2.206-5.672,1.028-12.372-3.552-16.952c-6.182-6.182-16.203-6.189-22.385-0.008
		l-34.96,34.956c-3.474,3.474-4.995,8.158-4.564,12.694l-72.98,72.979l-72.98-72.98c0.431-4.537-1.091-9.223-4.564-12.696
		L36.787,9.88c-6.182-6.182-16.203-6.182-22.385,0c-4.579,4.579-5.757,11.265-3.552,16.937C4.849,35.932,1.137,50.715,0.231,65.39
		c-0.763,12.33,0.38,24.111,3.216,33.174c1.926,6.153,6.509,16.56,15.566,17.116c0.239,0.015,0.477,0.022,0.715,0.022
		c13.899,0,22.65-23.956,24.109-47.619c0.128-2.075,0.198-4.133,0.22-6.166l5.306,5.306c3.091,3.091,7.142,4.636,11.192,4.636
		c0.503,0,1.007-0.024,1.508-0.072l72.979,72.979l-93.485,93.483l-8.256-8.257c-3.935-3.935-10.316-3.935-14.251-0.001
		c-3.936,3.936-3.936,10.315-0.001,14.251l8.257,8.258L3.667,276.137c-3.936,3.936-3.936,10.316-0.001,14.251
		c1.969,1.969,4.547,2.952,7.126,2.952c2.578,0,5.158-0.984,7.125-2.951l23.639-23.639l8.258,8.259
		c1.968,1.968,4.547,2.952,7.126,2.952c2.578,0,5.158-0.984,7.125-2.951C68,271.075,68,264.695,64.066,260.759l-8.259-8.26
		l93.485-93.484l93.483,93.484l-8.259,8.26c-3.935,3.935-3.935,10.315,0,14.25c1.967,1.968,4.546,2.952,7.125,2.952
		c2.579,0,5.158-0.984,7.125-2.952l8.259-8.26l23.639,23.639c1.967,1.968,4.546,2.952,7.125,2.952c2.579,0,5.158-0.984,7.125-2.952
		c3.935-3.935,3.935-10.315,0-14.25L271.277,252.5z M265.002,51.443l16.093-16.093c3.249,6.386,6.346,16.739,7.207,30.66
		c0.685,11.136-0.302,21.629-2.78,29.546c-2.119,6.771-4.894,9.968-6.576,10.071l-0.093,0.003
		c-3.971-0.001-12.531-13.474-14.056-38.168C264.451,61.881,264.529,56.46,265.002,51.443z M33.784,67.463
		c-1.524,24.696-10.086,38.168-14.057,38.168l-0.095-0.003c-1.681-0.104-4.454-3.3-6.573-10.071
		c-2.478-7.919-3.464-18.411-2.776-29.545c0.859-13.914,3.952-24.265,7.216-30.65l16.08,16.08
		C34.053,56.458,34.13,61.88,33.784,67.463z"/>
</g>
<g>
</g>
<g>
</g>
<g>
</g>
<g>
</g>
<g>
</g>
<g>
</g>
<g>
</g>
<g>
</g>
<g>
</g>
<g>
</g>
<g>
</g>
<g>
</g>
<g>
</g>
<g>
</g>
<g>
</g>
</svg>
