<?xml version="1.0" encoding="iso-8859-1"?>
<!-- Generator: Adobe Illustrator 19.0.0, SVG Export Plug-In . SVG Version: 6.00 Build 0)  -->
<svg version="1.1" id="Capa_1" xmlns="http://www.w3.org/2000/svg" xmlns:xlink="http://www.w3.org/1999/xlink" x="0px" y="0px"
	 viewBox="0 0 448 448" style="enable-background:new 0 0 448 448;" xml:space="preserve">
<g>
	<g>
		<path d="M304,0H144c-8.832,0-16,7.168-16,16v48h192V16C320,7.168,312.832,0,304,0z"/>
	</g>
</g>
<g>
	<g>
		<circle cx="223.999" cy="207.996" r="16"/>
	</g>
</g>
<g>
	<g>
		<path d="M320,80H128c0,38.288,12.672,72.544,32.64,96H160v208h128V176h-0.64C307.328,152.544,320,118.288,320,80z M224,240
			c-17.648,0-32-14.336-32-32s14.352-32,32-32s32,14.336,32,32S241.648,240,224,240z"/>
	</g>
</g>
<g>
	<g>
		<path d="M160,400v32c0,8.832,7.168,16,16,16h96c8.832,0,16-7.168,16-16v-32H160z"/>
	</g>
</g>
<g>
</g>
<g>
</g>
<g>
</g>
<g>
</g>
<g>
</g>
<g>
</g>
<g>
</g>
<g>
</g>
<g>
</g>
<g>
</g>
<g>
</g>
<g>
</g>
<g>
</g>
<g>
</g>
<g>
</g>
</svg>
