<?xml version="1.0" encoding="iso-8859-1"?>
<!-- Generator: Adobe Illustrator 18.1.1, SVG Export Plug-In . SVG Version: 6.00 Build 0)  -->
<svg version="1.1" id="Capa_1" xmlns="http://www.w3.org/2000/svg" xmlns:xlink="http://www.w3.org/1999/xlink" x="0px" y="0px"
	 viewBox="0 0 18.371 18.371" style="enable-background:new 0 0 18.371 18.371;" xml:space="preserve">
<g>
	<g>
		<path style="fill:#030104;" d="M18.371,3.483h-5.817C11.464,2.628,9.416,2.05,7.065,2.05c-3.478,0-6.299,1.261-6.325,2.819
			C0.723,4.914,0.713,4.963,0.717,5.013L0.965,7.88L0.951,7.887C0.912,7.908,0,8.41,0,9.707l0.001,3.901
			c0.007,0.053,0.44,2.713,7.171,2.713c6.75,0,6.93-2.607,6.933-2.726v-3.88c0-1.103-0.658-1.63-0.879-1.775l0.116-2.414L18.319,6.8
			l-0.557-0.894l-3.713-1.021h4.322V3.483z M7.065,7.733c2.426,0,4.531-0.614,5.592-1.515l-0.1,2.1
			c-0.255,0.237-0.618,0.55-1.042,0.857c-1.392,0.726-2.843,1.099-4.333,1.099c-2.132,0-3.874-0.759-4.826-1.286
			c-0.266-0.205-0.5-0.404-0.69-0.574l-0.19-2.192C2.539,7.12,4.641,7.733,7.065,7.733z M13.515,9.806v3.482
			c0,0.023-0.159,2.327-6.347,2.327c-6.159,0-6.575-2.307-6.577-2.33V9.776c0-0.793,0.433-1.216,0.639-1.373l0.043,0.505
			C1.28,8.995,1.324,9.075,1.395,9.129c0.098,0.075,2.438,1.841,5.781,1.841c1.966,0,3.864-0.616,5.642-1.831
			c0.081-0.055,0.13-0.146,0.135-0.243l0.021-0.406C13.193,8.691,13.515,9.102,13.515,9.806z"/>
		<polygon style="fill:#030104;" points="6.068,12.51 6.842,12.599 6.842,11.824 6.068,11.735 		"/>
		<rect x="7.555" y="11.801" style="fill:#030104;" width="0.776" height="0.775"/>
		<polygon style="fill:#030104;" points="9.067,12.474 9.842,12.319 9.842,11.543 9.067,11.699 		"/>
		<polygon style="fill:#030104;" points="10.479,12.131 11.254,11.865 11.254,11.089 10.479,11.356 		"/>
		<polygon style="fill:#030104;" points="6.068,13.785 6.842,13.872 6.842,13.097 6.068,13.008 		"/>
		<rect x="7.555" y="13.074" style="fill:#030104;" width="0.776" height="0.776"/>
		<polygon style="fill:#030104;" points="9.067,13.748 9.842,13.593 9.842,12.817 9.067,12.972 		"/>
		<polygon style="fill:#030104;" points="10.479,13.404 11.254,13.138 11.254,12.363 10.479,12.629 		"/>
		<polygon style="fill:#030104;" points="6.068,14.951 6.842,15.038 6.842,14.263 6.068,14.174 		"/>
		<rect x="7.555" y="14.241" style="fill:#030104;" width="0.776" height="0.775"/>
		<polygon style="fill:#030104;" points="9.067,14.914 9.842,14.758 9.842,13.983 9.067,14.138 		"/>
		<polygon style="fill:#030104;" points="10.479,14.571 11.254,14.303 11.254,13.529 10.479,13.794 		"/>
	</g>
</g>
<g>
</g>
<g>
</g>
<g>
</g>
<g>
</g>
<g>
</g>
<g>
</g>
<g>
</g>
<g>
</g>
<g>
</g>
<g>
</g>
<g>
</g>
<g>
</g>
<g>
</g>
<g>
</g>
<g>
</g>
</svg>
