<svg height="512pt" viewBox="0 0 512 512" width="512pt" xmlns="http://www.w3.org/2000/svg"><path d="m256 222.800781c-58.175781 0-105.5 47.328125-105.5 105.5s47.324219 105.5 105.5 105.5c58.171875 0 105.5-47.328125 105.5-105.5s-47.328125-105.5-105.5-105.5zm0 0"/><path d="m114.351562 94.265625h283.300782v34.269531h-283.300782zm0 0"/><path d="m487.898438 417.4375v-322.875c14.75-9.207031 24.101562-25.539062 24.101562-43.414062 0-28.203126-22.945312-51.148438-51.148438-51.148438h-409.703124c-28.203126 0-51.148438 22.945312-51.148438 51.148438 0 17.875 9.351562 34.207031 24.101562 43.414062v322.875c-14.75 9.207031-24.101562 25.539062-24.101562 43.414062 0 28.203126 22.945312 51.148438 51.148438 51.148438h409.703124c28.203126 0 51.148438-22.945312 51.148438-51.148438 0-17.875-9.351562-34.207031-24.101562-43.414062zm-231.898438 46.363281c-74.714844 0-135.5-60.785156-135.5-135.5 0-74.714843 60.785156-135.5 135.5-135.5s135.5 60.785157 135.5 135.5c0 74.714844-60.785156 135.5-135.5 135.5zm171.648438-320.269531c0 8.285156-6.714844 15-15 15h-313.296876c-8.285156 0-15-6.714844-15-15v-64.265625c0-8.28125 6.714844-15 15-15h313.296876c8.285156 0 15 6.71875 15 15zm0 0"/></svg>