<?xml version="1.0" encoding="iso-8859-1"?>
<!-- Generator: Adobe Illustrator 19.0.0, SVG Export Plug-In . SVG Version: 6.00 Build 0)  -->
<svg version="1.1" id="Capa_1" xmlns="http://www.w3.org/2000/svg" xmlns:xlink="http://www.w3.org/1999/xlink" x="0px" y="0px"
	 viewBox="0 0 512 512" style="enable-background:new 0 0 512 512;" xml:space="preserve">
<g>
	<g>
		<polygon points="141.305,377.057 0,377.057 0,471.057 141.334,471.057 141.334,377.015 		"/>
	</g>
</g>
<g>
	<g>
		<polygon points="370.694,377.057 370.666,377.015 370.666,471.057 512,471.057 512,377.057 		"/>
	</g>
</g>
<g>
	<g>
		<path d="M483.173,118.534V64.862H364.52l-37.321-12.44c-45.914-15.306-96.486-15.306-142.398,0l-37.321,12.44H28.827v53.672
			h177.506v30H28.827v84.934c0,31.02,25.236,56.256,56.256,56.256s56.256-25.236,56.256-56.256v-27.376h64.994v89.002
			c-11.453,7.054-21.438,16.578-29.148,28.144l-35.753,53.629h29.902v94.19H222v-94h-44.639l24.786-37.179
			c12.031-18.047,32.163-28.821,53.853-28.821s41.822,10.775,53.853,28.821l24.786,37.179H290v94h50.666v-94.19h29.902
			l-35.753-53.629c-7.71-11.566-17.694-21.091-29.148-28.144v-89.002h64.994v27.376c0,31.02,25.236,56.256,56.256,56.256
			c31.02,0,56.255-25.236,56.255-56.256v-84.934H305.667v-30H483.173z M111.339,233.469c0,14.478-11.778,26.256-26.256,26.256
			c-14.477,0-26.256-11.778-26.256-26.256v-27.376h52.512V233.469z M400.66,206.093h52.512v27.376
			c0,14.478-11.778,26.256-26.256,26.256c-14.478,0-26.256-11.778-26.256-26.256V206.093z"/>
	</g>
</g>
<g>
</g>
<g>
</g>
<g>
</g>
<g>
</g>
<g>
</g>
<g>
</g>
<g>
</g>
<g>
</g>
<g>
</g>
<g>
</g>
<g>
</g>
<g>
</g>
<g>
</g>
<g>
</g>
<g>
</g>
</svg>
