<svg height="512pt" viewBox="0 -61 512 512" width="512pt" xmlns="http://www.w3.org/2000/svg"><path d="m511.070312 300c-4.757812-62.34375-52.832031-114.511719-112.761718-120.761719-13.039063-1.363281-25.480469-4.800781-37.308594-9.511719v25.273438c0 41.351562-33.648438 75-75 75h-115.53125c4.46875 9.34375 7.476562 19.390625 9.015625 30zm0 0"/><path d="m76 240h-74.820312c-.738282 6.164062-1.179688 12.355469-1.179688 18.546875v41.453125h149.480469c-6.96875-34.191406-37.265625-60-73.480469-60zm0 0"/><path d="m30 75v57.789062c0 18.074219-4.921875 37.339844-15.074219 58.898438-2.78125 5.925781-5.085937 12.070312-7.105469 18.3125h68.179688c28.5 0 54.3125 11.5 73.25 30h136.75c24.8125 0 45-20.1875 45-45v-41.734375c-7.085938-5.0625-13.652344-10.8125-19.730469-17.050781 10.636719 5.183594 23.238281 9.316406 37.394531 9.667968 26.808594.570313 49.203126-11.539062 67.941407-30.277343 5.859375-5.859375 5.859375-15.351563 0-21.210938s-15.351563-5.859375-21.210938 0c-14.605469 14.621094-30.308593 22.121094-45.777343 21.503907-12.15625-.257813-22.996094-4.90625-31.519532-10.019532l46.125-19.714844c.101563-.046874.1875-.089843.277344-.132812 16.101562-7.265625 26.5-23.367188 26.5-41.03125 0-24.8125-20.1875-45-45-45-17.664062 0-33.765625 10.398438-41.160156 26.777344l-25.039063 58.578125c-1.683593-4.625-3.65625-9.101563-4.859375-13.960938-1.65625-6.691406-7.664062-11.394531-14.5625-11.394531h-215.378906c-8.289062 0-15 6.710938-15 15zm302.304688-36.167969c2.429687-5.359375 7.804687-8.832031 13.695312-8.832031 8.277344 0 15 6.722656 15 15 0 5.84375-3.414062 11.191406-8.714844 13.636719l-34.792968 14.871093zm-46.332032 141.167969c8.285156 0 15 6.714844 15 15s-6.714844 15-15 15-15-6.714844-15-15 6.714844-15 15-15zm-60-60c8.285156 0 15 6.714844 15 15s-6.714844 15-15 15-15-6.714844-15-15 6.714844-15 15-15zm0 0"/><path d="m45 390h72.453125c17.15625 0 32.578125-9.535156 40.257813-24.871094l8.289062-16.570312 8.261719 16.554687c7.675781 15.351563 23.101562 24.886719 40.253906 24.886719h252.484375c24.8125 0 45-20.1875 45-45v-15h-512v15c0 24.8125 20.1875 45 45 45zm0 0"/></svg>