<?xml version="1.0" encoding="iso-8859-1"?>
<!-- Generator: Adobe Illustrator 19.0.0, SVG Export Plug-In . SVG Version: 6.00 Build 0)  -->
<svg version="1.1" id="Capa_1" xmlns="http://www.w3.org/2000/svg" xmlns:xlink="http://www.w3.org/1999/xlink" x="0px" y="0px"
	 viewBox="0 0 512 512" style="enable-background:new 0 0 512 512;" xml:space="preserve">
<g>
	<g>
		<path d="M443.965,258.953c-11.033,11.032-26.41,15.102-40.671,12.262l15.22,106.533c0.76,5.46,4.554,10.243,10.098,12.109
			c5.398,1.793,11.332,0.394,15.352-3.625l42.426-42.426c2.413-2.413,3.926-5.563,4.31-8.95l15.33-137.968L443.965,258.953z"/>
	</g>
</g>
<g>
	<g>
		<path d="M295.471,174.101c-3.532-3.535-6.231-7.64-8.383-11.994c-68.513,31.146-143.599,91.967-195.359,154.217l49.091,35.063
			c49.788-58.301,123.508-115.362,189.829-142.108L295.471,174.101z"/>
	</g>
</g>
<g>
	<g>
		<path d="M73.495,340.164c-50.406,68-63.801,114.641-71.35,130.701c-6.039,15.139,1.029,32.659,16.75,38.998
			c15.399,6.121,32.82-1.353,38.967-16.74c7.326-15.595,19.355-57.74,64.562-118.01L73.495,340.164z"/>
	</g>
</g>
<g>
	<g>
		<path d="M507.605,131.672L380.324,4.394c-4.34-4.34-10.875-5.594-16.52-3.181l-148.493,63.64
			c-6.028,2.589-9.695,8.804-9.001,15.341c0.676,6.535,5.521,11.854,11.973,13.154L312,112.159v30.121
			c0,3.977,1.868,7.789,4.686,10.605l84.851,84.853c5.863,5.863,15.352,5.863,21.215,0l84.853-84.853
			C513.466,147.024,513.466,137.535,507.605,131.672z M401.537,131.673c-5.856,5.858-15.355,5.858-21.213,0
			c-5.858-5.858-5.858-15.355,0-21.213c5.859-5.859,15.357-5.858,21.213,0C407.394,116.317,407.396,125.815,401.537,131.673z"/>
	</g>
</g>
<g>
</g>
<g>
</g>
<g>
</g>
<g>
</g>
<g>
</g>
<g>
</g>
<g>
</g>
<g>
</g>
<g>
</g>
<g>
</g>
<g>
</g>
<g>
</g>
<g>
</g>
<g>
</g>
<g>
</g>
</svg>
