<svg height="512pt" viewBox="-62 0 512 512" width="512pt" xmlns="http://www.w3.org/2000/svg"><path d="m251.066406 179.316406h136.046875v42.601563h-136.046875zm0 0"/><path d="m251.066406 251.988281h136.046875v80.695313h-136.046875zm0 0"/><path d="m199.96875 99.8125c28.476562 4.992188 52.207031 23.90625 63.933594 49.429688h102.609375c-15.511719-80.457032-83.328125-142.507813-166.542969-149.23828175zm0 0"/><path d="m169.898438 412.183594c-40.761719-7.140625-71.839844-42.792969-71.839844-85.566406v-141.234376c0-42.773437 31.078125-78.425781 71.839844-85.566406v-99.816406c-94.96875 7.679688-169.898438 87.410156-169.898438 184.320312v143.359376c0 96.910156 74.929688 176.640624 169.898438 184.320312zm0 0"/><path d="m263.902344 362.753906c-11.726563 25.527344-35.457032 44.441406-63.929688 49.433594v99.808594c83.214844-6.730469 151.03125-68.78125 166.539063-149.242188zm0 0"/></svg>