<svg height="512pt" viewBox="0 0 512 512.00039" width="512pt" xmlns="http://www.w3.org/2000/svg"><path d="m270.871094 511.753906h104.949218c8.277344 0 14.992188-6.710937 14.992188-14.992187v-105.949219h-119.941406c0 11.375 0 127.222656 0 120.941406zm0 0"/><path d="m90.957031 300.855469c-9.464843 0-87.523437 0-83.664062 0l9.992187 59.972656c3.90625 0 76.71875 0 73.671875 0zm0 0"/><path d="m120.941406 496.761719c0 8.28125 6.714844 14.992187 14.992188 14.992187h104.949218c0-6.980468 0-126.765625 0-120.941406h-119.941406zm0 0"/><path d="m2.292969 270.871094c5.75 0 91.980469 0 88.664062 0v-59.972656c-4.789062 0-76.753906 0-73.675781 0l-13.902344 31.378906c-3.191406 7.757812-4.144531 16.234375-2.765625 24.492187zm0 0"/><path d="m270.871094 89.957031v90.957031c6.4375 0 214.351562 0 211.273437 0l-29.976562-71.46875c-4.0625-9.882812-11.515625-17.996093-21.019531-22.886718l-44.613282-22.945313c-9.113281-29.625-32.886718-52.101562-62.164062-60.171875 4.003906 8.035156 6.46875 16.96875 6.46875 26.542969 0 33.078125-26.894532 59.972656-59.96875 59.972656zm0 0"/><path d="m420.796875 270.871094c4.953125 0 91.996094 0 88.667969 0l1.675781-4.085938c1.378906-8.273437.425781-16.75-2.765625-24.507812l-13.902344-31.378906c-6.5625 0-77.339844 0-73.675781 0zm0 0"/><path d="m504.464844 300.855469c-9.554688 0-86.6875 0-83.667969 0v59.972656c4.5 0 78.292969 0 73.671875 0zm0 0"/><path d="m270.871094 300.855469h119.941406v59.972656h-119.941406zm0 0"/><path d="m45.984375 450.785156h44.972656v-59.972656c-6.824219 0-71.75 0-68.671875 0l8.90625 47.4375c1.203125 7.234375 7.460938 12.535156 14.792969 12.535156zm0 0"/><path d="m481.5625 438.257812 7.90625-47.445312c-3.078125 0-71.828125 0-68.671875 0v59.972656h45.980469c7.328125 0 13.578125-5.300781 14.785156-12.527344zm0 0"/><path d="m240.882812 89.957031c-33.074218 0-59.96875-26.894531-59.96875-59.972656 0-9.574219 2.460938-18.507813 6.46875-26.542969-29.277343 8.070313-53.050781 30.546875-62.164062 60.171875l-44.628906 22.960938c-9.496094 4.886719-16.945313 12.992187-21.003906 22.875l-28.976563 71.464843c5.222656 0 216.417969 0 210.273437 0zm0 0"/><path d="m120.941406 300.855469h119.941406v59.972656h-119.941406zm0 0"/><path d="m120.941406 210.898438h119.941406v59.972656h-119.941406zm0 0"/><path d="m270.871094 210.898438h119.941406v59.972656h-119.941406zm0 0"/><path d="m240.882812 59.972656h29.988282c16.558594 0 29.984375-13.425781 29.984375-29.988281 0-16.558594-13.425781-29.984375-29.984375-29.984375h-29.988282c-16.558593 0-29.984374 13.425781-29.984374 29.984375 0 16.5625 13.425781 29.988281 29.984374 29.988281zm0 0"/></svg>