<svg id="_x33_0" enable-background="new 0 0 64 64" height="512" viewBox="0 0 64 64" width="512" xmlns="http://www.w3.org/2000/svg"><g><path d="m11.134 27c-.102-.369-.2-.739-.31-1.106l-.782-2.606 1.916-.574.782 2.606c.167.558.322 1.119.471 1.681h14.789v-1.01c-5.362-3.186-10.169-7.156-14.307-11.834l-5.906 1.969c-2.864.954-4.787 3.622-4.787 6.64v2.82c0 .516.168 1.004.466 1.414z"/><path d="m13 40.719c0-.574-.012-1.146-.031-1.719h-9.503c-.298.41-.466.898-.466 1.414v5.172c0 .516.168 1.004.466 1.414h9.223c.194-1.818.31-3.645.31-5.475v-.806z"/><path d="m12.865 37c-.195-2.695-.607-5.368-1.221-8h-8.178c-.298.41-.466.898-.466 1.414v5.172c0 .516.168 1.004.466 1.414z"/><path d="m3 50.414v4.586h8.219l.24-.962c.415-1.661.725-3.345.973-5.038h-8.966c-.298.41-.466.898-.466 1.414z"/><path d="m11.018 57h-2.018v4h3.382l-.688-1.377c-.407-.813-.631-1.714-.676-2.623z"/><path d="m5 60c0 .552.448 1 1 1h1v-4h-2z"/><path d="m49.031 39h-16.031v8h16.303c-.187-1.819-.303-3.645-.303-5.475v-.807c0-.573.013-1.146.031-1.718z"/><path d="m39.281 15.588c1.13-1.884 1.719-4.01 1.719-6.174 0-.645-.251-1.251-.707-1.707s-1.063-.707-1.707-.707h-13.172c-.645 0-1.251.251-1.707.707s-.707 1.063-.707 1.707c0 2.164.589 4.29 1.702 6.146.715 1.19 1.597 2.221 2.639 3.088l2.435 2.029c.636-.426 1.401-.677 2.224-.677s1.588.251 2.224.678l2.435-2.029c1.042-.868 1.924-1.898 2.622-3.061z"/><path d="m28.032 23.68c.043-.537.189-1.041.425-1.498l-2.397-1.997c-1.214-1.013-2.242-2.213-3.056-3.568-1.317-2.195-2.004-4.677-2.004-7.203 0-1.179.459-2.287 1.293-3.121s1.942-1.293 3.121-1.293h13.172c1.179 0 2.287.459 3.121 1.293s1.293 1.942 1.293 3.121c0 2.526-.688 5.008-1.987 7.176-.83 1.383-1.858 2.583-3.072 3.596l-2.397 1.997c.235.457.381.961.425 1.498 4.841-3.006 9.194-6.69 12.968-10.983l-.415-2.491c-.297-1.782-1.129-3.4-2.408-4.68-1.631-1.63-3.797-2.527-6.1-2.527h-16.028c-2.304 0-4.47.897-6.099 2.526-1.279 1.279-2.111 2.897-2.408 4.68l-.415 2.491c3.774 4.293 8.128 7.977 12.968 10.983z"/><path d="m36 29c0 1.654-1.346 3-3 3v5h16.132c.187-2.693.576-5.366 1.166-8z"/><path d="m15 40.719v.807c0 1.829-.116 3.656-.303 5.475h16.303v-8h-16.031c.018.571.031 1.144.031 1.718z"/><path d="m51.031 39c-.019.572-.031 1.145-.031 1.719v.807c0 1.83.116 3.656.31 5.475h9.223c.299-.411.467-.899.467-1.415v-5.172c0-.516-.168-1.004-.466-1.414z"/><path d="m51.568 49c.248 1.693.558 3.378.973 5.039l.24.961h8.219v-4.586c0-.516-.168-1.004-.466-1.414z"/><path d="m52.356 29c-.614 2.632-1.026 5.305-1.221 8h9.399c.298-.41.466-.898.466-1.414v-5.172c0-.516-.168-1.004-.466-1.414z"/><path d="m57 61h1c.552 0 1-.448 1-1v-3h-2z"/><path d="m50.601 54.524c-.455-1.821-.794-3.667-1.056-5.524h-16.545v12h15.764c.382 0 .725-.212.895-.553l.859-1.719c.315-.63.482-1.337.482-2.042 0-.374-.046-.747-.136-1.108z"/><path d="m56.214 16.125-5.906-1.969c-4.138 4.678-8.946 8.648-14.308 11.834v1.01h14.789c.149-.562.304-1.123.471-1.681l.782-2.606 1.916.574-.782 2.606c-.11.367-.208.737-.31 1.106h7.668c.298-.409.466-.897.466-1.413v-2.82c0-3.018-1.923-5.686-4.786-6.641z"/><path d="m28 29h-14.298c.59 2.634.979 5.307 1.166 8h16.132v-5c-1.654 0-3-1.346-3-3z"/><path d="m13.399 54.523-.264 1.055c-.089.36-.135.734-.135 1.108 0 .705.167 1.412.482 2.043l.859 1.719c.171.34.513.552.895.552h15.764v-12h-16.545c-.261 1.857-.6 3.703-1.056 5.523z"/><path d="m52.307 59.623-.689 1.377h3.382v-4h-2.018c-.045.909-.269 1.81-.675 2.623z"/><path d="m34 29v-5c0-1.105-.895-2-2-2s-2 .895-2 2v5c0 .552.448 1 1 1h2c.552 0 1-.448 1-1z"/></g></svg>